<?xml version="1.0" encoding="UTF-8" standalone="no"?>
<!DOCTYPE svg PUBLIC "-//W3C//DTD SVG 1.1//EN"
 "http://www.w3.org/Graphics/SVG/1.1/DTD/svg11.dtd">
<!-- Generated by graphviz version 2.44.0 (20200408.0750)
 -->
<!-- Title: dependency&#45;cruiser output Pages: 1 -->
<svg width="610pt" height="278pt"
 viewBox="0.00 0.00 609.55 278.00" xmlns="http://www.w3.org/2000/svg" xmlns:xlink="http://www.w3.org/1999/xlink">
<g id="graph0" class="graph" transform="scale(1 1) rotate(0) translate(4 274)">
<title>dependency&#45;cruiser output</title>
<polygon fill="white" stroke="transparent" points="-4,4 -4,-274 605.55,-274 605.55,4 -4,4"/>
<g id="clust1" class="cluster">
<title>cluster_08&#45;fetch&#45;and&#45;render</title>
<path fill="#ffffff" stroke="black" stroke-width="2" d="M20,-8C20,-8 581.55,-8 581.55,-8 587.55,-8 593.55,-14 593.55,-20 593.55,-20 593.55,-250 593.55,-250 593.55,-256 587.55,-262 581.55,-262 581.55,-262 20,-262 20,-262 14,-262 8,-256 8,-250 8,-250 8,-20 8,-20 8,-14 14,-8 20,-8"/>
<text text-anchor="middle" x="300.77" y="-249.9" font-family="Helvetica,sans-Serif" font-weight="bold" font-size="9.00">08&#45;fetch&#45;and&#45;render</text>
</g>
<g id="clust2" class="cluster">
<title>cluster_08&#45;fetch&#45;and&#45;render/exercises</title>
<path fill="#ffffff" stroke="black" stroke-width="2" d="M28,-16C28,-16 573.55,-16 573.55,-16 579.55,-16 585.55,-22 585.55,-28 585.55,-28 585.55,-223 585.55,-223 585.55,-229 579.55,-235 573.55,-235 573.55,-235 28,-235 28,-235 22,-235 16,-229 16,-223 16,-223 16,-28 16,-28 16,-22 22,-16 28,-16"/>
<text text-anchor="middle" x="300.77" y="-222.9" font-family="Helvetica,sans-Serif" font-weight="bold" font-size="9.00">exercises</text>
</g>
<g id="clust3" class="cluster">
<title>cluster_08&#45;fetch&#45;and&#45;render/exercises/posts</title>
<path fill="#ffffff" stroke="black" stroke-width="2" d="M36,-24C36,-24 565.55,-24 565.55,-24 571.55,-24 577.55,-30 577.55,-36 577.55,-36 577.55,-196 577.55,-196 577.55,-202 571.55,-208 565.55,-208 565.55,-208 36,-208 36,-208 30,-208 24,-202 24,-196 24,-196 24,-36 24,-36 24,-30 30,-24 36,-24"/>
<text text-anchor="middle" x="300.77" y="-195.9" font-family="Helvetica,sans-Serif" font-weight="bold" font-size="9.00">posts</text>
</g>
<g id="clust4" class="cluster">
<title>cluster_08&#45;fetch&#45;and&#45;render/exercises/posts/src</title>
<path fill="#ffffff" stroke="black" stroke-width="2" d="M44,-32C44,-32 557.55,-32 557.55,-32 563.55,-32 569.55,-38 569.55,-44 569.55,-44 569.55,-169 569.55,-169 569.55,-175 563.55,-181 557.55,-181 557.55,-181 44,-181 44,-181 38,-181 32,-175 32,-169 32,-169 32,-44 32,-44 32,-38 38,-32 44,-32"/>
<text text-anchor="middle" x="300.77" y="-168.9" font-family="Helvetica,sans-Serif" font-weight="bold" font-size="9.00">src</text>
</g>
<g id="clust5" class="cluster">
<title>cluster_08&#45;fetch&#45;and&#45;render/exercises/posts/src/api</title>
<path fill="#ffffff" stroke="black" stroke-width="2" d="M399.04,-40C399.04,-40 487.55,-40 487.55,-40 493.55,-40 499.55,-46 499.55,-52 499.55,-52 499.55,-81 499.55,-81 499.55,-87 493.55,-93 487.55,-93 487.55,-93 399.04,-93 399.04,-93 393.04,-93 387.04,-87 387.04,-81 387.04,-81 387.04,-52 387.04,-52 387.04,-46 393.04,-40 399.04,-40"/>
<text text-anchor="middle" x="443.29" y="-80.9" font-family="Helvetica,sans-Serif" font-weight="bold" font-size="9.00">api</text>
</g>
<g id="clust6" class="cluster">
<title>cluster_08&#45;fetch&#45;and&#45;render/exercises/posts/src/components</title>
<path fill="#ffffff" stroke="black" stroke-width="2" d="M411.79,-101C411.79,-101 474.79,-101 474.79,-101 480.79,-101 486.79,-107 486.79,-113 486.79,-113 486.79,-142 486.79,-142 486.79,-148 480.79,-154 474.79,-154 474.79,-154 411.79,-154 411.79,-154 405.79,-154 399.79,-148 399.79,-142 399.79,-142 399.79,-113 399.79,-113 399.79,-107 405.79,-101 411.79,-101"/>
<text text-anchor="middle" x="443.29" y="-141.9" font-family="Helvetica,sans-Serif" font-weight="bold" font-size="9.00">components</text>
</g>
<g id="clust7" class="cluster">
<title>cluster_08&#45;fetch&#45;and&#45;render/exercises/posts/src/handlers</title>
<path fill="#ffffff" stroke="black" stroke-width="2" d="M254.02,-70C254.02,-70 367.04,-70 367.04,-70 373.04,-70 379.04,-76 379.04,-82 379.04,-82 379.04,-111 379.04,-111 379.04,-117 373.04,-123 367.04,-123 367.04,-123 254.02,-123 254.02,-123 248.02,-123 242.02,-117 242.02,-111 242.02,-111 242.02,-82 242.02,-82 242.02,-76 248.02,-70 254.02,-70"/>
<text text-anchor="middle" x="310.53" y="-110.9" font-family="Helvetica,sans-Serif" font-weight="bold" font-size="9.00">handlers</text>
</g>
<g id="clust8" class="cluster">
<title>cluster_08&#45;fetch&#45;and&#45;render/exercises/posts/src/listeners</title>
<path fill="#ffffff" stroke="black" stroke-width="2" d="M114,-70C114,-70 222.02,-70 222.02,-70 228.02,-70 234.02,-76 234.02,-82 234.02,-82 234.02,-111 234.02,-111 234.02,-117 228.02,-123 222.02,-123 222.02,-123 114,-123 114,-123 108,-123 102,-117 102,-111 102,-111 102,-82 102,-82 102,-76 108,-70 114,-70"/>
<text text-anchor="middle" x="168.01" y="-110.9" font-family="Helvetica,sans-Serif" font-weight="bold" font-size="9.00">listeners</text>
</g>
<!-- 08&#45;fetch&#45;and&#45;render/exercises/posts/src/api/typicode&#45;resource.js -->
<g id="node1" class="node">
<title>08&#45;fetch&#45;and&#45;render/exercises/posts/src/api/typicode&#45;resource.js</title>
<g id="a_node1"><a xlink:href="08-fetch-and-render/exercises/posts/src/api/typicode-resource.js" xlink:title="typicode&#45;resource.js">
<path fill="#ffffcc" stroke="black" d="M485.1,-66.3C485.1,-66.3 401.48,-66.3 401.48,-66.3 398.38,-66.3 395.28,-63.2 395.28,-60.1 395.28,-60.1 395.28,-53.9 395.28,-53.9 395.28,-50.8 398.38,-47.7 401.48,-47.7 401.48,-47.7 485.1,-47.7 485.1,-47.7 488.2,-47.7 491.3,-50.8 491.3,-53.9 491.3,-53.9 491.3,-60.1 491.3,-60.1 491.3,-63.2 488.2,-66.3 485.1,-66.3"/>
<text text-anchor="middle" x="443.29" y="-54.3" font-family="Helvetica,sans-Serif" font-size="9.00">typicode&#45;resource.js</text>
</a>
</g>
</g>
<!-- 08&#45;fetch&#45;and&#45;render/exercises/posts/src/config.js -->
<g id="node2" class="node">
<title>08&#45;fetch&#45;and&#45;render/exercises/posts/src/config.js</title>
<g id="a_node2"><a xlink:href="08-fetch-and-render/exercises/posts/src/config.js" xlink:title="config.js">
<path fill="#ffffcc" stroke="black" d="M555.34,-66.3C555.34,-66.3 513.75,-66.3 513.75,-66.3 510.65,-66.3 507.55,-63.2 507.55,-60.1 507.55,-60.1 507.55,-53.9 507.55,-53.9 507.55,-50.8 510.65,-47.7 513.75,-47.7 513.75,-47.7 555.34,-47.7 555.34,-47.7 558.45,-47.7 561.55,-50.8 561.55,-53.9 561.55,-53.9 561.55,-60.1 561.55,-60.1 561.55,-63.2 558.45,-66.3 555.34,-66.3"/>
<text text-anchor="middle" x="534.55" y="-54.3" font-family="Helvetica,sans-Serif" font-size="9.00">config.js</text>
</a>
</g>
</g>
<!-- 08&#45;fetch&#45;and&#45;render/exercises/posts/src/api/typicode&#45;resource.js&#45;&gt;08&#45;fetch&#45;and&#45;render/exercises/posts/src/config.js -->
<g id="edge1" class="edge">
<title>08&#45;fetch&#45;and&#45;render/exercises/posts/src/api/typicode&#45;resource.js&#45;&gt;08&#45;fetch&#45;and&#45;render/exercises/posts/src/config.js</title>
<path fill="none" stroke="#000000" stroke-width="2" stroke-opacity="0.200000" d="M491.53,-57C494.71,-57 497.87,-57 500.95,-57"/>
<polygon fill="#000000" fill-opacity="0.200000" stroke="#000000" stroke-width="2" stroke-opacity="0.200000" points="501.13,-59.1 507.13,-57 501.13,-54.9 501.13,-59.1"/>
</g>
<!-- 08&#45;fetch&#45;and&#45;render/exercises/posts/src/components/render&#45;post.js -->
<g id="node3" class="node">
<title>08&#45;fetch&#45;and&#45;render/exercises/posts/src/components/render&#45;post.js</title>
<g id="a_node3"><a xlink:href="08-fetch-and-render/exercises/posts/src/components/render-post.js" xlink:title="render&#45;post.js">
<path fill="#ffffcc" stroke="black" d="M472.6,-127.3C472.6,-127.3 413.99,-127.3 413.99,-127.3 410.89,-127.3 407.78,-124.2 407.78,-121.1 407.78,-121.1 407.78,-114.9 407.78,-114.9 407.78,-111.8 410.89,-108.7 413.99,-108.7 413.99,-108.7 472.6,-108.7 472.6,-108.7 475.7,-108.7 478.8,-111.8 478.8,-114.9 478.8,-114.9 478.8,-121.1 478.8,-121.1 478.8,-124.2 475.7,-127.3 472.6,-127.3"/>
<text text-anchor="middle" x="443.29" y="-115.3" font-family="Helvetica,sans-Serif" font-size="9.00">render&#45;post.js</text>
</a>
</g>
</g>
<!-- 08&#45;fetch&#45;and&#45;render/exercises/posts/src/handlers/choose&#45;and&#45;render&#45;post.js -->
<g id="node4" class="node">
<title>08&#45;fetch&#45;and&#45;render/exercises/posts/src/handlers/choose&#45;and&#45;render&#45;post.js</title>
<g id="a_node4"><a xlink:href="08-fetch-and-render/exercises/posts/src/handlers/choose-and-render-post.js" xlink:title="choose&#45;and&#45;render&#45;post.js">
<path fill="#ffffcc" stroke="black" d="M364.85,-96.3C364.85,-96.3 256.21,-96.3 256.21,-96.3 253.11,-96.3 250.01,-93.2 250.01,-90.1 250.01,-90.1 250.01,-83.9 250.01,-83.9 250.01,-80.8 253.11,-77.7 256.21,-77.7 256.21,-77.7 364.85,-77.7 364.85,-77.7 367.95,-77.7 371.05,-80.8 371.05,-83.9 371.05,-83.9 371.05,-90.1 371.05,-90.1 371.05,-93.2 367.95,-96.3 364.85,-96.3"/>
<text text-anchor="middle" x="310.53" y="-84.3" font-family="Helvetica,sans-Serif" font-size="9.00">choose&#45;and&#45;render&#45;post.js</text>
</a>
</g>
</g>
<!-- 08&#45;fetch&#45;and&#45;render/exercises/posts/src/handlers/choose&#45;and&#45;render&#45;post.js&#45;&gt;08&#45;fetch&#45;and&#45;render/exercises/posts/src/api/typicode&#45;resource.js -->
<g id="edge2" class="edge">
<title>08&#45;fetch&#45;and&#45;render/exercises/posts/src/handlers/choose&#45;and&#45;render&#45;post.js&#45;&gt;08&#45;fetch&#45;and&#45;render/exercises/posts/src/api/typicode&#45;resource.js</title>
<path fill="none" stroke="#000000" stroke-width="2" stroke-opacity="0.200000" d="M352.18,-77.67C365.96,-74.51 381.45,-70.96 395.66,-67.7"/>
<polygon fill="#000000" fill-opacity="0.200000" stroke="#000000" stroke-width="2" stroke-opacity="0.200000" points="396.28,-69.71 401.66,-66.32 395.34,-65.62 396.28,-69.71"/>
</g>
<!-- 08&#45;fetch&#45;and&#45;render/exercises/posts/src/handlers/choose&#45;and&#45;render&#45;post.js&#45;&gt;08&#45;fetch&#45;and&#45;render/exercises/posts/src/components/render&#45;post.js -->
<g id="edge3" class="edge">
<title>08&#45;fetch&#45;and&#45;render/exercises/posts/src/handlers/choose&#45;and&#45;render&#45;post.js&#45;&gt;08&#45;fetch&#45;and&#45;render/exercises/posts/src/components/render&#45;post.js</title>
<path fill="none" stroke="#000000" stroke-width="2" stroke-opacity="0.200000" d="M351.11,-96.39C367.04,-100.16 385.4,-104.51 401.45,-108.32"/>
<polygon fill="#000000" fill-opacity="0.200000" stroke="#000000" stroke-width="2" stroke-opacity="0.200000" points="401.39,-110.46 407.71,-109.8 402.36,-106.37 401.39,-110.46"/>
</g>
<!-- 08&#45;fetch&#45;and&#45;render/exercises/posts/src/init.js -->
<g id="node5" class="node">
<title>08&#45;fetch&#45;and&#45;render/exercises/posts/src/init.js</title>
<g id="a_node5"><a xlink:href="08-fetch-and-render/exercises/posts/src/init.js" xlink:title="init.js">
<path fill="#ffffcc" stroke="black" d="M87.8,-96.3C87.8,-96.3 46.2,-96.3 46.2,-96.3 43.1,-96.3 40,-93.2 40,-90.1 40,-90.1 40,-83.9 40,-83.9 40,-80.8 43.1,-77.7 46.2,-77.7 46.2,-77.7 87.8,-77.7 87.8,-77.7 90.9,-77.7 94,-80.8 94,-83.9 94,-83.9 94,-90.1 94,-90.1 94,-93.2 90.9,-96.3 87.8,-96.3"/>
<text text-anchor="middle" x="67" y="-84.3" font-family="Helvetica,sans-Serif" font-size="9.00">init.js</text>
</a>
</g>
</g>
<!-- 08&#45;fetch&#45;and&#45;render/exercises/posts/src/listeners/fetch&#45;and&#45;render&#45;posts.js -->
<g id="node6" class="node">
<title>08&#45;fetch&#45;and&#45;render/exercises/posts/src/listeners/fetch&#45;and&#45;render&#45;posts.js</title>
<g id="a_node6"><a xlink:href="08-fetch-and-render/exercises/posts/src/listeners/fetch-and-render-posts.js" xlink:title="fetch&#45;and&#45;render&#45;posts.js">
<path fill="#ffffcc" stroke="black" d="M219.82,-96.3C219.82,-96.3 116.19,-96.3 116.19,-96.3 113.09,-96.3 109.99,-93.2 109.99,-90.1 109.99,-90.1 109.99,-83.9 109.99,-83.9 109.99,-80.8 113.09,-77.7 116.19,-77.7 116.19,-77.7 219.82,-77.7 219.82,-77.7 222.92,-77.7 226.02,-80.8 226.02,-83.9 226.02,-83.9 226.02,-90.1 226.02,-90.1 226.02,-93.2 222.92,-96.3 219.82,-96.3"/>
<text text-anchor="middle" x="168.01" y="-84.3" font-family="Helvetica,sans-Serif" font-size="9.00">fetch&#45;and&#45;render&#45;posts.js</text>
</a>
</g>
</g>
<!-- 08&#45;fetch&#45;and&#45;render/exercises/posts/src/init.js&#45;&gt;08&#45;fetch&#45;and&#45;render/exercises/posts/src/listeners/fetch&#45;and&#45;render&#45;posts.js -->
<g id="edge4" class="edge">
<title>08&#45;fetch&#45;and&#45;render/exercises/posts/src/init.js&#45;&gt;08&#45;fetch&#45;and&#45;render/exercises/posts/src/listeners/fetch&#45;and&#45;render&#45;posts.js</title>
<path fill="none" stroke="#000000" stroke-width="2" stroke-opacity="0.200000" d="M94.01,-87C97.09,-87 100.33,-87 103.66,-87"/>
<polygon fill="#000000" fill-opacity="0.200000" stroke="#000000" stroke-width="2" stroke-opacity="0.200000" points="103.73,-89.1 109.73,-87 103.73,-84.9 103.73,-89.1"/>
</g>
<!-- 08&#45;fetch&#45;and&#45;render/exercises/posts/src/listeners/fetch&#45;and&#45;render&#45;posts.js&#45;&gt;08&#45;fetch&#45;and&#45;render/exercises/posts/src/handlers/choose&#45;and&#45;render&#45;post.js -->
<g id="edge5" class="edge">
<title>08&#45;fetch&#45;and&#45;render/exercises/posts/src/listeners/fetch&#45;and&#45;render&#45;posts.js&#45;&gt;08&#45;fetch&#45;and&#45;render/exercises/posts/src/handlers/choose&#45;and&#45;render&#45;post.js</title>
<path fill="none" stroke="#000000" stroke-width="2" stroke-opacity="0.200000" d="M226.16,-87C231.85,-87 237.66,-87 243.44,-87"/>
<polygon fill="#000000" fill-opacity="0.200000" stroke="#000000" stroke-width="2" stroke-opacity="0.200000" points="243.68,-89.1 249.68,-87 243.68,-84.9 243.68,-89.1"/>
</g>
</g>
</svg>
