<?xml version="1.0" encoding="UTF-8" standalone="no"?>
<!DOCTYPE svg PUBLIC "-//W3C//DTD SVG 1.1//EN"
 "http://www.w3.org/Graphics/SVG/1.1/DTD/svg11.dtd">
<!-- Generated by graphviz version 2.44.0 (20200408.0750)
 -->
<!-- Title: dependency&#45;cruiser output Pages: 1 -->
<svg width="610pt" height="371pt"
 viewBox="0.00 0.00 609.55 371.00" xmlns="http://www.w3.org/2000/svg" xmlns:xlink="http://www.w3.org/1999/xlink">
<g id="graph0" class="graph" transform="scale(1 1) rotate(0) translate(4 367)">
<title>dependency&#45;cruiser output</title>
<polygon fill="white" stroke="transparent" points="-4,4 -4,-367 605.55,-367 605.55,4 -4,4"/>
<g id="clust1" class="cluster">
<title>cluster_08&#45;fetch&#45;and&#45;render</title>
<path fill="#ffffff" stroke="black" stroke-width="2" d="M20,-8C20,-8 581.55,-8 581.55,-8 587.55,-8 593.55,-14 593.55,-20 593.55,-20 593.55,-343 593.55,-343 593.55,-349 587.55,-355 581.55,-355 581.55,-355 20,-355 20,-355 14,-355 8,-349 8,-343 8,-343 8,-20 8,-20 8,-14 14,-8 20,-8"/>
<text text-anchor="middle" x="300.77" y="-342.9" font-family="Helvetica,sans-Serif" font-weight="bold" font-size="9.00">08&#45;fetch&#45;and&#45;render</text>
</g>
<g id="clust2" class="cluster">
<title>cluster_08&#45;fetch&#45;and&#45;render/exercises</title>
<path fill="#ffffff" stroke="black" stroke-width="2" d="M28,-16C28,-16 573.55,-16 573.55,-16 579.55,-16 585.55,-22 585.55,-28 585.55,-28 585.55,-316 585.55,-316 585.55,-322 579.55,-328 573.55,-328 573.55,-328 28,-328 28,-328 22,-328 16,-322 16,-316 16,-316 16,-28 16,-28 16,-22 22,-16 28,-16"/>
<text text-anchor="middle" x="300.77" y="-315.9" font-family="Helvetica,sans-Serif" font-weight="bold" font-size="9.00">exercises</text>
</g>
<g id="clust3" class="cluster">
<title>cluster_08&#45;fetch&#45;and&#45;render/exercises/posts</title>
<path fill="#ffffff" stroke="black" stroke-width="2" d="M36,-24C36,-24 565.55,-24 565.55,-24 571.55,-24 577.55,-30 577.55,-36 577.55,-36 577.55,-289 577.55,-289 577.55,-295 571.55,-301 565.55,-301 565.55,-301 36,-301 36,-301 30,-301 24,-295 24,-289 24,-289 24,-36 24,-36 24,-30 30,-24 36,-24"/>
<text text-anchor="middle" x="300.77" y="-288.9" font-family="Helvetica,sans-Serif" font-weight="bold" font-size="9.00">posts</text>
</g>
<g id="clust4" class="cluster">
<title>cluster_08&#45;fetch&#45;and&#45;render/exercises/posts/src</title>
<path fill="#ffffff" stroke="black" stroke-width="2" d="M44,-32C44,-32 557.55,-32 557.55,-32 563.55,-32 569.55,-38 569.55,-44 569.55,-44 569.55,-262 569.55,-262 569.55,-268 563.55,-274 557.55,-274 557.55,-274 44,-274 44,-274 38,-274 32,-268 32,-262 32,-262 32,-44 32,-44 32,-38 38,-32 44,-32"/>
<text text-anchor="middle" x="300.77" y="-261.9" font-family="Helvetica,sans-Serif" font-weight="bold" font-size="9.00">src</text>
</g>
<g id="clust5" class="cluster">
<title>cluster_08&#45;fetch&#45;and&#45;render/exercises/posts/src/api</title>
<path fill="#ffffff" stroke="black" stroke-width="2" d="M399.04,-40C399.04,-40 487.55,-40 487.55,-40 493.55,-40 499.55,-46 499.55,-52 499.55,-52 499.55,-81 499.55,-81 499.55,-87 493.55,-93 487.55,-93 487.55,-93 399.04,-93 399.04,-93 393.04,-93 387.04,-87 387.04,-81 387.04,-81 387.04,-52 387.04,-52 387.04,-46 393.04,-40 399.04,-40"/>
<text text-anchor="middle" x="443.29" y="-80.9" font-family="Helvetica,sans-Serif" font-weight="bold" font-size="9.00">api</text>
</g>
<g id="clust6" class="cluster">
<title>cluster_08&#45;fetch&#45;and&#45;render/exercises/posts/src/components</title>
<path fill="#ffffff" stroke="black" stroke-width="2" d="M399.54,-101C399.54,-101 487.04,-101 487.04,-101 493.04,-101 499.04,-107 499.04,-113 499.04,-113 499.04,-235 499.04,-235 499.04,-241 493.04,-247 487.04,-247 487.04,-247 399.54,-247 399.54,-247 393.54,-247 387.54,-241 387.54,-235 387.54,-235 387.54,-113 387.54,-113 387.54,-107 393.54,-101 399.54,-101"/>
<text text-anchor="middle" x="443.29" y="-234.9" font-family="Helvetica,sans-Serif" font-weight="bold" font-size="9.00">components</text>
</g>
<g id="clust7" class="cluster">
<title>cluster_08&#45;fetch&#45;and&#45;render/exercises/posts/src/handlers</title>
<path fill="#ffffff" stroke="black" stroke-width="2" d="M254.02,-132C254.02,-132 367.04,-132 367.04,-132 373.04,-132 379.04,-138 379.04,-144 379.04,-144 379.04,-173 379.04,-173 379.04,-179 373.04,-185 367.04,-185 367.04,-185 254.02,-185 254.02,-185 248.02,-185 242.02,-179 242.02,-173 242.02,-173 242.02,-144 242.02,-144 242.02,-138 248.02,-132 254.02,-132"/>
<text text-anchor="middle" x="310.53" y="-172.9" font-family="Helvetica,sans-Serif" font-weight="bold" font-size="9.00">handlers</text>
</g>
<g id="clust8" class="cluster">
<title>cluster_08&#45;fetch&#45;and&#45;render/exercises/posts/src/listeners</title>
<path fill="#ffffff" stroke="black" stroke-width="2" d="M114,-132C114,-132 222.02,-132 222.02,-132 228.02,-132 234.02,-138 234.02,-144 234.02,-144 234.02,-173 234.02,-173 234.02,-179 228.02,-185 222.02,-185 222.02,-185 114,-185 114,-185 108,-185 102,-179 102,-173 102,-173 102,-144 102,-144 102,-138 108,-132 114,-132"/>
<text text-anchor="middle" x="168.01" y="-172.9" font-family="Helvetica,sans-Serif" font-weight="bold" font-size="9.00">listeners</text>
</g>
<!-- 08&#45;fetch&#45;and&#45;render/exercises/posts/src/api/typicode&#45;resource.js -->
<g id="node1" class="node">
<title>08&#45;fetch&#45;and&#45;render/exercises/posts/src/api/typicode&#45;resource.js</title>
<g id="a_node1"><a xlink:href="08-fetch-and-render/exercises/posts/src/api/typicode-resource.js" xlink:title="typicode&#45;resource.js">
<path fill="#ffffcc" stroke="black" d="M485.1,-66.3C485.1,-66.3 401.48,-66.3 401.48,-66.3 398.38,-66.3 395.28,-63.2 395.28,-60.1 395.28,-60.1 395.28,-53.9 395.28,-53.9 395.28,-50.8 398.38,-47.7 401.48,-47.7 401.48,-47.7 485.1,-47.7 485.1,-47.7 488.2,-47.7 491.3,-50.8 491.3,-53.9 491.3,-53.9 491.3,-60.1 491.3,-60.1 491.3,-63.2 488.2,-66.3 485.1,-66.3"/>
<text text-anchor="middle" x="443.29" y="-54.3" font-family="Helvetica,sans-Serif" font-size="9.00">typicode&#45;resource.js</text>
</a>
</g>
</g>
<!-- 08&#45;fetch&#45;and&#45;render/exercises/posts/src/config.js -->
<g id="node2" class="node">
<title>08&#45;fetch&#45;and&#45;render/exercises/posts/src/config.js</title>
<g id="a_node2"><a xlink:href="08-fetch-and-render/exercises/posts/src/config.js" xlink:title="config.js">
<path fill="#ffffcc" stroke="black" d="M555.34,-66.3C555.34,-66.3 513.75,-66.3 513.75,-66.3 510.65,-66.3 507.55,-63.2 507.55,-60.1 507.55,-60.1 507.55,-53.9 507.55,-53.9 507.55,-50.8 510.65,-47.7 513.75,-47.7 513.75,-47.7 555.34,-47.7 555.34,-47.7 558.45,-47.7 561.55,-50.8 561.55,-53.9 561.55,-53.9 561.55,-60.1 561.55,-60.1 561.55,-63.2 558.45,-66.3 555.34,-66.3"/>
<text text-anchor="middle" x="534.55" y="-54.3" font-family="Helvetica,sans-Serif" font-size="9.00">config.js</text>
</a>
</g>
</g>
<!-- 08&#45;fetch&#45;and&#45;render/exercises/posts/src/api/typicode&#45;resource.js&#45;&gt;08&#45;fetch&#45;and&#45;render/exercises/posts/src/config.js -->
<g id="edge1" class="edge">
<title>08&#45;fetch&#45;and&#45;render/exercises/posts/src/api/typicode&#45;resource.js&#45;&gt;08&#45;fetch&#45;and&#45;render/exercises/posts/src/config.js</title>
<path fill="none" stroke="#000000" stroke-width="2" stroke-opacity="0.200000" d="M491.53,-57C494.71,-57 497.87,-57 500.95,-57"/>
<polygon fill="#000000" fill-opacity="0.200000" stroke="#000000" stroke-width="2" stroke-opacity="0.200000" points="501.13,-59.1 507.13,-57 501.13,-54.9 501.13,-59.1"/>
</g>
<!-- 08&#45;fetch&#45;and&#45;render/exercises/posts/src/components/four&#45;oh&#45;four.js -->
<g id="node3" class="node">
<title>08&#45;fetch&#45;and&#45;render/exercises/posts/src/components/four&#45;oh&#45;four.js</title>
<g id="a_node3"><a xlink:href="08-fetch-and-render/exercises/posts/src/components/four-oh-four.js" xlink:title="four&#45;oh&#45;four.js">
<path fill="#ffffcc" stroke="black" d="M473.09,-220.3C473.09,-220.3 413.49,-220.3 413.49,-220.3 410.39,-220.3 407.29,-217.2 407.29,-214.1 407.29,-214.1 407.29,-207.9 407.29,-207.9 407.29,-204.8 410.39,-201.7 413.49,-201.7 413.49,-201.7 473.09,-201.7 473.09,-201.7 476.19,-201.7 479.29,-204.8 479.29,-207.9 479.29,-207.9 479.29,-214.1 479.29,-214.1 479.29,-217.2 476.19,-220.3 473.09,-220.3"/>
<text text-anchor="middle" x="443.29" y="-208.3" font-family="Helvetica,sans-Serif" font-size="9.00">four&#45;oh&#45;four.js</text>
</a>
</g>
</g>
<!-- 08&#45;fetch&#45;and&#45;render/exercises/posts/src/components/other&#45;error.js -->
<g id="node4" class="node">
<title>08&#45;fetch&#45;and&#45;render/exercises/posts/src/components/other&#45;error.js</title>
<g id="a_node4"><a xlink:href="08-fetch-and-render/exercises/posts/src/components/other-error.js" xlink:title="other&#45;error.js">
<path fill="#ffffcc" stroke="black" d="M471.09,-189.3C471.09,-189.3 415.49,-189.3 415.49,-189.3 412.39,-189.3 409.29,-186.2 409.29,-183.1 409.29,-183.1 409.29,-176.9 409.29,-176.9 409.29,-173.8 412.39,-170.7 415.49,-170.7 415.49,-170.7 471.09,-170.7 471.09,-170.7 474.19,-170.7 477.29,-173.8 477.29,-176.9 477.29,-176.9 477.29,-183.1 477.29,-183.1 477.29,-186.2 474.19,-189.3 471.09,-189.3"/>
<text text-anchor="middle" x="443.29" y="-177.3" font-family="Helvetica,sans-Serif" font-size="9.00">other&#45;error.js</text>
</a>
</g>
</g>
<!-- 08&#45;fetch&#45;and&#45;render/exercises/posts/src/components/render&#45;comments.js -->
<g id="node5" class="node">
<title>08&#45;fetch&#45;and&#45;render/exercises/posts/src/components/render&#45;comments.js</title>
<g id="a_node5"><a xlink:href="08-fetch-and-render/exercises/posts/src/components/render-comments.js" xlink:title="render&#45;comments.js">
<path fill="#ffffcc" stroke="black" d="M484.59,-158.3C484.59,-158.3 401.99,-158.3 401.99,-158.3 398.89,-158.3 395.79,-155.2 395.79,-152.1 395.79,-152.1 395.79,-145.9 395.79,-145.9 395.79,-142.8 398.89,-139.7 401.99,-139.7 401.99,-139.7 484.59,-139.7 484.59,-139.7 487.69,-139.7 490.79,-142.8 490.79,-145.9 490.79,-145.9 490.79,-152.1 490.79,-152.1 490.79,-155.2 487.69,-158.3 484.59,-158.3"/>
<text text-anchor="middle" x="443.29" y="-146.3" font-family="Helvetica,sans-Serif" font-size="9.00">render&#45;comments.js</text>
</a>
</g>
</g>
<!-- 08&#45;fetch&#45;and&#45;render/exercises/posts/src/components/render&#45;post.js -->
<g id="node6" class="node">
<title>08&#45;fetch&#45;and&#45;render/exercises/posts/src/components/render&#45;post.js</title>
<g id="a_node6"><a xlink:href="08-fetch-and-render/exercises/posts/src/components/render-post.js" xlink:title="render&#45;post.js">
<path fill="#ffffcc" stroke="black" d="M472.6,-127.3C472.6,-127.3 413.99,-127.3 413.99,-127.3 410.89,-127.3 407.78,-124.2 407.78,-121.1 407.78,-121.1 407.78,-114.9 407.78,-114.9 407.78,-111.8 410.89,-108.7 413.99,-108.7 413.99,-108.7 472.6,-108.7 472.6,-108.7 475.7,-108.7 478.8,-111.8 478.8,-114.9 478.8,-114.9 478.8,-121.1 478.8,-121.1 478.8,-124.2 475.7,-127.3 472.6,-127.3"/>
<text text-anchor="middle" x="443.29" y="-115.3" font-family="Helvetica,sans-Serif" font-size="9.00">render&#45;post.js</text>
</a>
</g>
</g>
<!-- 08&#45;fetch&#45;and&#45;render/exercises/posts/src/handlers/choose&#45;and&#45;render&#45;post.js -->
<g id="node7" class="node">
<title>08&#45;fetch&#45;and&#45;render/exercises/posts/src/handlers/choose&#45;and&#45;render&#45;post.js</title>
<g id="a_node7"><a xlink:href="08-fetch-and-render/exercises/posts/src/handlers/choose-and-render-post.js" xlink:title="choose&#45;and&#45;render&#45;post.js">
<path fill="#ffffcc" stroke="black" d="M364.85,-158.3C364.85,-158.3 256.21,-158.3 256.21,-158.3 253.11,-158.3 250.01,-155.2 250.01,-152.1 250.01,-152.1 250.01,-145.9 250.01,-145.9 250.01,-142.8 253.11,-139.7 256.21,-139.7 256.21,-139.7 364.85,-139.7 364.85,-139.7 367.95,-139.7 371.05,-142.8 371.05,-145.9 371.05,-145.9 371.05,-152.1 371.05,-152.1 371.05,-155.2 367.95,-158.3 364.85,-158.3"/>
<text text-anchor="middle" x="310.53" y="-146.3" font-family="Helvetica,sans-Serif" font-size="9.00">choose&#45;and&#45;render&#45;post.js</text>
</a>
</g>
</g>
<!-- 08&#45;fetch&#45;and&#45;render/exercises/posts/src/handlers/choose&#45;and&#45;render&#45;post.js&#45;&gt;08&#45;fetch&#45;and&#45;render/exercises/posts/src/api/typicode&#45;resource.js -->
<g id="edge2" class="edge">
<title>08&#45;fetch&#45;and&#45;render/exercises/posts/src/handlers/choose&#45;and&#45;render&#45;post.js&#45;&gt;08&#45;fetch&#45;and&#45;render/exercises/posts/src/api/typicode&#45;resource.js</title>
<path fill="none" stroke="#000000" stroke-width="2" stroke-opacity="0.200000" d="M325.03,-139.5C348.64,-122.89 397.45,-88.55 424.05,-69.83"/>
<polygon fill="#000000" fill-opacity="0.200000" stroke="#000000" stroke-width="2" stroke-opacity="0.200000" points="425.36,-71.48 429.06,-66.31 422.94,-68.05 425.36,-71.48"/>
</g>
<!-- 08&#45;fetch&#45;and&#45;render/exercises/posts/src/handlers/choose&#45;and&#45;render&#45;post.js&#45;&gt;08&#45;fetch&#45;and&#45;render/exercises/posts/src/components/four&#45;oh&#45;four.js -->
<g id="edge3" class="edge">
<title>08&#45;fetch&#45;and&#45;render/exercises/posts/src/handlers/choose&#45;and&#45;render&#45;post.js&#45;&gt;08&#45;fetch&#45;and&#45;render/exercises/posts/src/components/four&#45;oh&#45;four.js</title>
<path fill="none" stroke="#000000" stroke-width="2" stroke-opacity="0.200000" d="M324.58,-158.44C339.19,-168.64 363.85,-184.8 387.04,-195 391.57,-196.99 396.42,-198.82 401.3,-200.46"/>
<polygon fill="#000000" fill-opacity="0.200000" stroke="#000000" stroke-width="2" stroke-opacity="0.200000" points="400.66,-202.46 407.01,-202.3 401.95,-198.46 400.66,-202.46"/>
</g>
<!-- 08&#45;fetch&#45;and&#45;render/exercises/posts/src/handlers/choose&#45;and&#45;render&#45;post.js&#45;&gt;08&#45;fetch&#45;and&#45;render/exercises/posts/src/components/other&#45;error.js -->
<g id="edge4" class="edge">
<title>08&#45;fetch&#45;and&#45;render/exercises/posts/src/handlers/choose&#45;and&#45;render&#45;post.js&#45;&gt;08&#45;fetch&#45;and&#45;render/exercises/posts/src/components/other&#45;error.js</title>
<path fill="none" stroke="#000000" stroke-width="2" stroke-opacity="0.200000" d="M351.11,-158.39C367.72,-162.32 386.96,-166.88 403.48,-170.8"/>
<polygon fill="#000000" fill-opacity="0.200000" stroke="#000000" stroke-width="2" stroke-opacity="0.200000" points="403.11,-172.87 409.44,-172.21 404.08,-168.78 403.11,-172.87"/>
</g>
<!-- 08&#45;fetch&#45;and&#45;render/exercises/posts/src/handlers/choose&#45;and&#45;render&#45;post.js&#45;&gt;08&#45;fetch&#45;and&#45;render/exercises/posts/src/components/render&#45;comments.js -->
<g id="edge5" class="edge">
<title>08&#45;fetch&#45;and&#45;render/exercises/posts/src/handlers/choose&#45;and&#45;render&#45;post.js&#45;&gt;08&#45;fetch&#45;and&#45;render/exercises/posts/src/components/render&#45;comments.js</title>
<path fill="none" stroke="#000000" stroke-width="2" stroke-opacity="0.200000" d="M371.17,-149C377.33,-149 383.56,-149 389.64,-149"/>
<polygon fill="#000000" fill-opacity="0.200000" stroke="#000000" stroke-width="2" stroke-opacity="0.200000" points="389.66,-151.1 395.66,-149 389.66,-146.9 389.66,-151.1"/>
</g>
<!-- 08&#45;fetch&#45;and&#45;render/exercises/posts/src/handlers/choose&#45;and&#45;render&#45;post.js&#45;&gt;08&#45;fetch&#45;and&#45;render/exercises/posts/src/components/render&#45;post.js -->
<g id="edge6" class="edge">
<title>08&#45;fetch&#45;and&#45;render/exercises/posts/src/handlers/choose&#45;and&#45;render&#45;post.js&#45;&gt;08&#45;fetch&#45;and&#45;render/exercises/posts/src/components/render&#45;post.js</title>
<path fill="none" stroke="#000000" stroke-width="2" stroke-opacity="0.200000" d="M351.11,-139.61C367.04,-135.84 385.4,-131.49 401.45,-127.68"/>
<polygon fill="#000000" fill-opacity="0.200000" stroke="#000000" stroke-width="2" stroke-opacity="0.200000" points="402.36,-129.63 407.71,-126.2 401.39,-125.54 402.36,-129.63"/>
</g>
<!-- 08&#45;fetch&#45;and&#45;render/exercises/posts/src/init.js -->
<g id="node8" class="node">
<title>08&#45;fetch&#45;and&#45;render/exercises/posts/src/init.js</title>
<g id="a_node8"><a xlink:href="08-fetch-and-render/exercises/posts/src/init.js" xlink:title="init.js">
<path fill="#ffffcc" stroke="black" d="M87.8,-158.3C87.8,-158.3 46.2,-158.3 46.2,-158.3 43.1,-158.3 40,-155.2 40,-152.1 40,-152.1 40,-145.9 40,-145.9 40,-142.8 43.1,-139.7 46.2,-139.7 46.2,-139.7 87.8,-139.7 87.8,-139.7 90.9,-139.7 94,-142.8 94,-145.9 94,-145.9 94,-152.1 94,-152.1 94,-155.2 90.9,-158.3 87.8,-158.3"/>
<text text-anchor="middle" x="67" y="-146.3" font-family="Helvetica,sans-Serif" font-size="9.00">init.js</text>
</a>
</g>
</g>
<!-- 08&#45;fetch&#45;and&#45;render/exercises/posts/src/listeners/fetch&#45;and&#45;render&#45;posts.js -->
<g id="node9" class="node">
<title>08&#45;fetch&#45;and&#45;render/exercises/posts/src/listeners/fetch&#45;and&#45;render&#45;posts.js</title>
<g id="a_node9"><a xlink:href="08-fetch-and-render/exercises/posts/src/listeners/fetch-and-render-posts.js" xlink:title="fetch&#45;and&#45;render&#45;posts.js">
<path fill="#ffffcc" stroke="black" d="M219.82,-158.3C219.82,-158.3 116.19,-158.3 116.19,-158.3 113.09,-158.3 109.99,-155.2 109.99,-152.1 109.99,-152.1 109.99,-145.9 109.99,-145.9 109.99,-142.8 113.09,-139.7 116.19,-139.7 116.19,-139.7 219.82,-139.7 219.82,-139.7 222.92,-139.7 226.02,-142.8 226.02,-145.9 226.02,-145.9 226.02,-152.1 226.02,-152.1 226.02,-155.2 222.92,-158.3 219.82,-158.3"/>
<text text-anchor="middle" x="168.01" y="-146.3" font-family="Helvetica,sans-Serif" font-size="9.00">fetch&#45;and&#45;render&#45;posts.js</text>
</a>
</g>
</g>
<!-- 08&#45;fetch&#45;and&#45;render/exercises/posts/src/init.js&#45;&gt;08&#45;fetch&#45;and&#45;render/exercises/posts/src/listeners/fetch&#45;and&#45;render&#45;posts.js -->
<g id="edge7" class="edge">
<title>08&#45;fetch&#45;and&#45;render/exercises/posts/src/init.js&#45;&gt;08&#45;fetch&#45;and&#45;render/exercises/posts/src/listeners/fetch&#45;and&#45;render&#45;posts.js</title>
<path fill="none" stroke="#000000" stroke-width="2" stroke-opacity="0.200000" d="M94.01,-149C97.09,-149 100.33,-149 103.66,-149"/>
<polygon fill="#000000" fill-opacity="0.200000" stroke="#000000" stroke-width="2" stroke-opacity="0.200000" points="103.73,-151.1 109.73,-149 103.73,-146.9 103.73,-151.1"/>
</g>
<!-- 08&#45;fetch&#45;and&#45;render/exercises/posts/src/listeners/fetch&#45;and&#45;render&#45;posts.js&#45;&gt;08&#45;fetch&#45;and&#45;render/exercises/posts/src/handlers/choose&#45;and&#45;render&#45;post.js -->
<g id="edge8" class="edge">
<title>08&#45;fetch&#45;and&#45;render/exercises/posts/src/listeners/fetch&#45;and&#45;render&#45;posts.js&#45;&gt;08&#45;fetch&#45;and&#45;render/exercises/posts/src/handlers/choose&#45;and&#45;render&#45;post.js</title>
<path fill="none" stroke="#000000" stroke-width="2" stroke-opacity="0.200000" d="M226.16,-149C231.85,-149 237.66,-149 243.44,-149"/>
<polygon fill="#000000" fill-opacity="0.200000" stroke="#000000" stroke-width="2" stroke-opacity="0.200000" points="243.68,-151.1 249.68,-149 243.68,-146.9 243.68,-151.1"/>
</g>
</g>
</svg>
