<?xml version="1.0" encoding="UTF-8" standalone="no"?>
<!DOCTYPE svg PUBLIC "-//W3C//DTD SVG 1.1//EN"
 "http://www.w3.org/Graphics/SVG/1.1/DTD/svg11.dtd">
<!-- Generated by graphviz version 2.44.0 (20200408.0750)
 -->
<!-- Title: dependency&#45;cruiser output Pages: 1 -->
<svg width="455pt" height="243pt"
 viewBox="0.00 0.00 454.52 243.00" xmlns="http://www.w3.org/2000/svg" xmlns:xlink="http://www.w3.org/1999/xlink">
<g id="graph0" class="graph" transform="scale(1 1) rotate(0) translate(4 239)">
<title>dependency&#45;cruiser output</title>
<polygon fill="white" stroke="transparent" points="-4,4 -4,-239 450.52,-239 450.52,4 -4,4"/>
<g id="clust1" class="cluster">
<title>cluster_08&#45;fetch&#45;and&#45;render</title>
<path fill="#ffffff" stroke="black" stroke-width="2" d="M20,-8C20,-8 426.52,-8 426.52,-8 432.52,-8 438.52,-14 438.52,-20 438.52,-20 438.52,-215 438.52,-215 438.52,-221 432.52,-227 426.52,-227 426.52,-227 20,-227 20,-227 14,-227 8,-221 8,-215 8,-215 8,-20 8,-20 8,-14 14,-8 20,-8"/>
<text text-anchor="middle" x="223.26" y="-214.9" font-family="Helvetica,sans-Serif" font-weight="bold" font-size="9.00">08&#45;fetch&#45;and&#45;render</text>
</g>
<g id="clust2" class="cluster">
<title>cluster_08&#45;fetch&#45;and&#45;render/exercises</title>
<path fill="#ffffff" stroke="black" stroke-width="2" d="M28,-16C28,-16 418.52,-16 418.52,-16 424.52,-16 430.52,-22 430.52,-28 430.52,-28 430.52,-188 430.52,-188 430.52,-194 424.52,-200 418.52,-200 418.52,-200 28,-200 28,-200 22,-200 16,-194 16,-188 16,-188 16,-28 16,-28 16,-22 22,-16 28,-16"/>
<text text-anchor="middle" x="223.26" y="-187.9" font-family="Helvetica,sans-Serif" font-weight="bold" font-size="9.00">exercises</text>
</g>
<g id="clust3" class="cluster">
<title>cluster_08&#45;fetch&#45;and&#45;render/exercises/users</title>
<path fill="#ffffff" stroke="black" stroke-width="2" d="M36,-24C36,-24 410.52,-24 410.52,-24 416.52,-24 422.52,-30 422.52,-36 422.52,-36 422.52,-161 422.52,-161 422.52,-167 416.52,-173 410.52,-173 410.52,-173 36,-173 36,-173 30,-173 24,-167 24,-161 24,-161 24,-36 24,-36 24,-30 30,-24 36,-24"/>
<text text-anchor="middle" x="223.26" y="-160.9" font-family="Helvetica,sans-Serif" font-weight="bold" font-size="9.00">users</text>
</g>
<g id="clust4" class="cluster">
<title>cluster_08&#45;fetch&#45;and&#45;render/exercises/users/src</title>
<path fill="#ffffff" stroke="black" stroke-width="2" d="M44,-32C44,-32 340.52,-32 340.52,-32 346.52,-32 352.52,-38 352.52,-44 352.52,-44 352.52,-134 352.52,-134 352.52,-140 346.52,-146 340.52,-146 340.52,-146 44,-146 44,-146 38,-146 32,-140 32,-134 32,-134 32,-44 32,-44 32,-38 38,-32 44,-32"/>
<text text-anchor="middle" x="192.26" y="-133.9" font-family="Helvetica,sans-Serif" font-weight="bold" font-size="9.00">src</text>
</g>
<g id="clust5" class="cluster">
<title>cluster_08&#45;fetch&#45;and&#45;render/exercises/users/src/API&#45;calls</title>
<path fill="#ffffff" stroke="black" stroke-width="2" d="M52,-66C52,-66 98,-66 98,-66 104,-66 110,-72 110,-78 110,-78 110,-107 110,-107 110,-113 104,-119 98,-119 98,-119 52,-119 52,-119 46,-119 40,-113 40,-107 40,-107 40,-78 40,-78 40,-72 46,-66 52,-66"/>
<text text-anchor="middle" x="75" y="-106.9" font-family="Helvetica,sans-Serif" font-weight="bold" font-size="9.00">API&#45;calls</text>
</g>
<g id="clust6" class="cluster">
<title>cluster_08&#45;fetch&#45;and&#45;render/exercises/users/src/handlers</title>
<path fill="#ffffff" stroke="black" stroke-width="2" d="M266.01,-40C266.01,-40 332.52,-40 332.52,-40 338.52,-40 344.52,-46 344.52,-52 344.52,-52 344.52,-81 344.52,-81 344.52,-87 338.52,-93 332.52,-93 332.52,-93 266.01,-93 266.01,-93 260.01,-93 254.01,-87 254.01,-81 254.01,-81 254.01,-52 254.01,-52 254.01,-46 260.01,-40 266.01,-40"/>
<text text-anchor="middle" x="299.27" y="-80.9" font-family="Helvetica,sans-Serif" font-weight="bold" font-size="9.00">handlers</text>
</g>
<g id="clust7" class="cluster">
<title>cluster_08&#45;fetch&#45;and&#45;render/exercises/users/src/listeners</title>
<path fill="#ffffff" stroke="black" stroke-width="2" d="M130,-40C130,-40 234.01,-40 234.01,-40 240.01,-40 246.01,-46 246.01,-52 246.01,-52 246.01,-81 246.01,-81 246.01,-87 240.01,-93 234.01,-93 234.01,-93 130,-93 130,-93 124,-93 118,-87 118,-81 118,-81 118,-52 118,-52 118,-46 124,-40 130,-40"/>
<text text-anchor="middle" x="182.01" y="-80.9" font-family="Helvetica,sans-Serif" font-weight="bold" font-size="9.00">listeners</text>
</g>
<!-- 08&#45;fetch&#45;and&#45;render/exercises/users/config.js -->
<g id="node1" class="node">
<title>08&#45;fetch&#45;and&#45;render/exercises/users/config.js</title>
<g id="a_node1"><a xlink:href="08-fetch-and-render/exercises/users/config.js" xlink:title="config.js">
<path fill="#ffffcc" stroke="black" d="M408.32,-88.3C408.32,-88.3 366.72,-88.3 366.72,-88.3 363.62,-88.3 360.52,-85.2 360.52,-82.1 360.52,-82.1 360.52,-75.9 360.52,-75.9 360.52,-72.8 363.62,-69.7 366.72,-69.7 366.72,-69.7 408.32,-69.7 408.32,-69.7 411.42,-69.7 414.52,-72.8 414.52,-75.9 414.52,-75.9 414.52,-82.1 414.52,-82.1 414.52,-85.2 411.42,-88.3 408.32,-88.3"/>
<text text-anchor="middle" x="387.52" y="-76.3" font-family="Helvetica,sans-Serif" font-size="9.00">config.js</text>
</a>
</g>
</g>
<!-- 08&#45;fetch&#45;and&#45;render/exercises/users/src/API&#45;calls/api&#45;call.js -->
<g id="node2" class="node">
<title>08&#45;fetch&#45;and&#45;render/exercises/users/src/API&#45;calls/api&#45;call.js</title>
<g id="a_node2"><a xlink:href="08-fetch-and-render/exercises/users/src/API-calls/api-call.js" xlink:title="api&#45;call.js">
<path fill="#ffffcc" stroke="black" d="M95.8,-92.3C95.8,-92.3 54.2,-92.3 54.2,-92.3 51.1,-92.3 48,-89.2 48,-86.1 48,-86.1 48,-79.9 48,-79.9 48,-76.8 51.1,-73.7 54.2,-73.7 54.2,-73.7 95.8,-73.7 95.8,-73.7 98.9,-73.7 102,-76.8 102,-79.9 102,-79.9 102,-86.1 102,-86.1 102,-89.2 98.9,-92.3 95.8,-92.3"/>
<text text-anchor="middle" x="75" y="-80.3" font-family="Helvetica,sans-Serif" font-size="9.00">api&#45;call.js</text>
</a>
</g>
</g>
<!-- 08&#45;fetch&#45;and&#45;render/exercises/users/src/API&#45;calls/api&#45;call.js&#45;&gt;08&#45;fetch&#45;and&#45;render/exercises/users/config.js -->
<g id="edge1" class="edge">
<title>08&#45;fetch&#45;and&#45;render/exercises/users/src/API&#45;calls/api&#45;call.js&#45;&gt;08&#45;fetch&#45;and&#45;render/exercises/users/config.js</title>
<path fill="none" stroke="#000000" stroke-width="2" stroke-opacity="0.200000" d="M101.93,-92.35C107.18,-93.87 112.72,-95.2 118,-96 221.06,-111.58 251.08,-119.95 352.52,-96 357.02,-94.94 361.61,-93.18 365.9,-91.19"/>
<polygon fill="#000000" fill-opacity="0.200000" stroke="#000000" stroke-width="2" stroke-opacity="0.200000" points="367.1,-92.94 371.52,-88.38 365.22,-89.18 367.1,-92.94"/>
</g>
<!-- 08&#45;fetch&#45;and&#45;render/exercises/users/src/handlers/choose&#45;user.js -->
<g id="node3" class="node">
<title>08&#45;fetch&#45;and&#45;render/exercises/users/src/handlers/choose&#45;user.js</title>
<g id="a_node3"><a xlink:href="08-fetch-and-render/exercises/users/src/handlers/choose-user.js" xlink:title="choose&#45;user.js">
<path fill="#ffffcc" stroke="black" d="M330.08,-66.3C330.08,-66.3 268.46,-66.3 268.46,-66.3 265.36,-66.3 262.25,-63.2 262.25,-60.1 262.25,-60.1 262.25,-53.9 262.25,-53.9 262.25,-50.8 265.36,-47.7 268.46,-47.7 268.46,-47.7 330.08,-47.7 330.08,-47.7 333.18,-47.7 336.28,-50.8 336.28,-53.9 336.28,-53.9 336.28,-60.1 336.28,-60.1 336.28,-63.2 333.18,-66.3 330.08,-66.3"/>
<text text-anchor="middle" x="299.27" y="-54.3" font-family="Helvetica,sans-Serif" font-size="9.00">choose&#45;user.js</text>
</a>
</g>
</g>
<!-- 08&#45;fetch&#45;and&#45;render/exercises/users/src/handlers/choose&#45;user.js&#45;&gt;08&#45;fetch&#45;and&#45;render/exercises/users/config.js -->
<g id="edge2" class="edge">
<title>08&#45;fetch&#45;and&#45;render/exercises/users/src/handlers/choose&#45;user.js&#45;&gt;08&#45;fetch&#45;and&#45;render/exercises/users/config.js</title>
<path fill="none" stroke="#000000" stroke-width="2" stroke-opacity="0.200000" d="M336.55,-65.95C341.91,-67.3 347.36,-68.67 352.52,-70 352.99,-70.12 353.46,-70.24 353.93,-70.36"/>
<polygon fill="#000000" fill-opacity="0.200000" stroke="#000000" stroke-width="2" stroke-opacity="0.200000" points="353.84,-72.51 360.17,-71.98 354.89,-68.44 353.84,-72.51"/>
</g>
<!-- 08&#45;fetch&#45;and&#45;render/exercises/users/src/init.js -->
<g id="node4" class="node">
<title>08&#45;fetch&#45;and&#45;render/exercises/users/src/init.js</title>
<g id="a_node4"><a xlink:href="08-fetch-and-render/exercises/users/src/init.js" xlink:title="init.js">
<path fill="#ffffcc" stroke="black" d="M95.8,-58.3C95.8,-58.3 54.2,-58.3 54.2,-58.3 51.1,-58.3 48,-55.2 48,-52.1 48,-52.1 48,-45.9 48,-45.9 48,-42.8 51.1,-39.7 54.2,-39.7 54.2,-39.7 95.8,-39.7 95.8,-39.7 98.9,-39.7 102,-42.8 102,-45.9 102,-45.9 102,-52.1 102,-52.1 102,-55.2 98.9,-58.3 95.8,-58.3"/>
<text text-anchor="middle" x="75" y="-46.3" font-family="Helvetica,sans-Serif" font-size="9.00">init.js</text>
</a>
</g>
</g>
<!-- 08&#45;fetch&#45;and&#45;render/exercises/users/src/listeners/fetch&#45;and&#45;render&#45;user.js -->
<g id="node5" class="node">
<title>08&#45;fetch&#45;and&#45;render/exercises/users/src/listeners/fetch&#45;and&#45;render&#45;user.js</title>
<g id="a_node5"><a xlink:href="08-fetch-and-render/exercises/users/src/listeners/fetch-and-render-user.js" xlink:title="fetch&#45;and&#45;render&#45;user.js">
<path fill="#ffffcc" stroke="black" d="M231.82,-66.3C231.82,-66.3 132.2,-66.3 132.2,-66.3 129.09,-66.3 125.99,-63.2 125.99,-60.1 125.99,-60.1 125.99,-53.9 125.99,-53.9 125.99,-50.8 129.09,-47.7 132.2,-47.7 132.2,-47.7 231.82,-47.7 231.82,-47.7 234.92,-47.7 238.02,-50.8 238.02,-53.9 238.02,-53.9 238.02,-60.1 238.02,-60.1 238.02,-63.2 234.92,-66.3 231.82,-66.3"/>
<text text-anchor="middle" x="182.01" y="-54.3" font-family="Helvetica,sans-Serif" font-size="9.00">fetch&#45;and&#45;render&#45;user.js</text>
</a>
</g>
</g>
<!-- 08&#45;fetch&#45;and&#45;render/exercises/users/src/init.js&#45;&gt;08&#45;fetch&#45;and&#45;render/exercises/users/src/listeners/fetch&#45;and&#45;render&#45;user.js -->
<g id="edge3" class="edge">
<title>08&#45;fetch&#45;and&#45;render/exercises/users/src/init.js&#45;&gt;08&#45;fetch&#45;and&#45;render/exercises/users/src/listeners/fetch&#45;and&#45;render&#45;user.js</title>
<path fill="none" stroke="#000000" stroke-width="2" stroke-opacity="0.200000" d="M102.23,-51C107.69,-51.41 113.67,-51.87 119.82,-52.34"/>
<polygon fill="#000000" fill-opacity="0.200000" stroke="#000000" stroke-width="2" stroke-opacity="0.200000" points="119.86,-54.45 126,-52.81 120.18,-50.26 119.86,-54.45"/>
</g>
<!-- 08&#45;fetch&#45;and&#45;render/exercises/users/src/listeners/fetch&#45;and&#45;render&#45;user.js&#45;&gt;08&#45;fetch&#45;and&#45;render/exercises/users/src/handlers/choose&#45;user.js -->
<g id="edge4" class="edge">
<title>08&#45;fetch&#45;and&#45;render/exercises/users/src/listeners/fetch&#45;and&#45;render&#45;user.js&#45;&gt;08&#45;fetch&#45;and&#45;render/exercises/users/src/handlers/choose&#45;user.js</title>
<path fill="none" stroke="#000000" stroke-width="2" stroke-opacity="0.200000" d="M238.27,-57C244.21,-57 250.19,-57 255.94,-57"/>
<polygon fill="#000000" fill-opacity="0.200000" stroke="#000000" stroke-width="2" stroke-opacity="0.200000" points="256.09,-59.1 262.09,-57 256.09,-54.9 256.09,-59.1"/>
</g>
</g>
</svg>
